<svg width="200" height="200" viewBox="0 0 200 200" fill="none" xmlns="http://www.w3.org/2000/svg">
<path d="M199.841 99.9167C199.841 155.112 155.103 199.841 99.9248 199.841C44.7381 199.841 0 155.112 0 99.9167C0 44.7382 44.7381 0 99.9248 0C155.103 0 199.841 44.7382 199.841 99.9167Z" fill="black"/>
<path d="M169.602 135.592C169.602 141.579 164.745 146.436 158.758 146.436H41.0861C35.0991 146.436 30.25 141.579 30.25 135.592V64.242C30.25 58.2631 35.0991 53.4141 41.0861 53.4141H158.758C164.745 53.4141 169.602 58.2631 169.602 64.242V135.592Z" fill="#7B7B7B"/>
<path d="M46.87 132.44C41.3859 132.44 36.9492 128.003 36.9492 122.519C36.9492 117.035 41.3859 112.598 46.87 112.598C52.354 112.598 56.7907 117.035 56.7907 122.519C56.7907 128.003 52.354 132.44 46.87 132.44Z" fill="#353131"/>
<path d="M54.8597 107.477H38.754C36.8655 107.477 35.3398 105.952 35.3398 104.063C35.3398 102.183 36.8655 100.649 38.754 100.649H54.8597C56.7482 100.649 58.2739 102.183 58.2739 104.063C58.2739 105.952 56.7482 107.477 54.8597 107.477Z" fill="#353131"/>
<path d="M54.8597 96.436H38.754C36.8655 96.436 35.3398 94.9104 35.3398 93.0219C35.3398 91.1417 36.8655 89.6079 38.754 89.6079H54.8597C56.7482 89.6079 58.2739 91.1417 58.2739 93.0219C58.2739 94.9104 56.7482 96.436 54.8597 96.436Z" fill="#353131"/>
<path d="M54.8597 85.4011H38.754C36.8655 85.4011 35.3398 83.8756 35.3398 81.9788C35.3398 80.1068 36.8655 78.5647 38.754 78.5647H54.8597C56.7482 78.5647 58.2739 80.1068 58.2739 81.9788C58.2739 83.8756 56.7482 85.4011 54.8597 85.4011Z" fill="#353131"/>
<path d="M54.8597 74.3678H38.754C36.8655 74.3678 35.3398 72.8257 35.3398 70.9537C35.3398 69.0569 36.8655 67.5396 38.754 67.5396H54.8597C56.7482 67.5396 58.2739 69.0569 58.2739 70.9537C58.2739 72.8257 56.7482 74.3678 54.8597 74.3678Z" fill="#353131"/>
<path d="M159.374 67.3987H63.6875V131.615H159.374V67.3987Z" fill="#353131"/>
<path d="M127.023 94.8367L127.913 95.7191L127.922 103.735L127.039 104.626L126.157 103.735L126.148 95.7273L127.023 94.8367Z" fill="#9DD9F3"/>
<path d="M126.148 95.7273V99.5786H127.922L127.913 95.7191L127.023 94.8367L126.148 95.7273Z" fill="#9DD9F3"/>
<path d="M121.951 94.4728C124.763 92.4358 128.169 89.5083 132.292 88.8568V87.0672C127.987 86.3085 121.868 85.2117 120.046 84.8901C117.159 84.3788 116.269 85.4097 116.269 85.4097L108.047 91.7595C108.047 91.7595 119.089 96.5509 121.951 94.4728Z" fill="#F2818E"/>
<path d="M116.269 113.605C116.269 113.605 117.159 114.628 120.046 114.125C121.868 113.803 127.987 112.715 132.292 111.948V110.15C128.169 109.498 124.763 106.579 121.951 104.542C119.089 102.464 108.047 107.255 108.047 107.255L116.269 113.605Z" fill="#F2818E"/>
<path d="M75.1497 99.6687L75.125 99.7099H75.1827C75.9661 100.914 79.1411 105.177 83.8004 107.957C93.3831 113.672 126.568 105.87 126.568 105.87L126.551 99.6687L126.568 93.459C126.568 93.459 93.3831 85.6576 83.8004 91.3725C79.1411 94.1517 75.9661 98.4234 75.1827 99.6192H75.125L75.1497 99.6687Z" fill="white"/>
<path d="M82.7449 92.0658C77.6979 95.2985 75.125 99.7023 75.125 99.7023C75.125 99.7023 77.7227 104.098 82.7779 107.297L83.9984 108.023C85.2436 104.757 86.6538 98.6714 84.0314 91.3071L82.7449 92.0658Z" fill="#F2818E"/>
<path d="M148.155 99.6114C148.155 99.6114 127.671 87.0187 127.695 99.6196C127.72 112.237 148.155 99.6114 148.155 99.6114Z" fill="black"/>
<path d="M125.516 101.251L127.429 101.202C127.668 101.128 130.917 100.435 132.732 100.047V99.1897C130.917 98.8104 127.668 98.1094 127.429 98.0352L125.516 97.9775L123.734 98.8351V100.394L125.516 101.251Z" fill="#F2818E"/>
<path d="M106.698 99.5942C106.698 100.6 107.094 101.549 107.812 102.25C108.521 102.959 109.469 103.355 110.467 103.346C112.537 103.346 114.228 101.664 114.228 99.5942H114.665L114.228 99.5859C114.228 98.5798 113.832 97.6398 113.122 96.9305C112.405 96.2213 111.465 95.8336 110.459 95.8336C108.381 95.8419 106.698 97.5243 106.698 99.5942ZM115.102 99.5942C115.102 102.142 113.024 104.229 110.467 104.229C109.23 104.237 108.067 103.75 107.185 102.876C106.319 102.002 105.824 100.839 105.824 99.6024C105.824 97.0459 107.902 94.9677 110.459 94.9595C111.696 94.9595 112.859 95.4378 113.733 96.3119C114.615 97.1861 115.102 98.3489 115.102 99.5859V99.5942Z" fill="#9DD9F3"/>
<path d="M96.7765 99.5942C96.7848 100.6 97.1806 101.549 97.8898 102.25C98.599 102.959 99.5474 103.355 100.545 103.346C102.623 103.346 104.306 101.664 104.306 99.5942H104.743L104.306 99.5859C104.306 98.5798 103.91 97.6398 103.201 96.9305C102.491 96.2213 101.543 95.8336 100.537 95.8336C98.4671 95.8419 96.7765 97.5243 96.7765 99.5942ZM105.18 99.5942C105.18 102.142 103.102 104.229 100.553 104.229C99.3165 104.237 98.1454 103.75 97.2713 102.876C96.3889 102.002 95.9106 100.839 95.9023 99.6024C95.9023 97.0459 97.9805 94.9677 100.537 94.9595C101.774 94.9595 102.937 95.4378 103.819 96.3119C104.693 97.1861 105.18 98.3489 105.18 99.5859V99.5942Z" fill="#9DD9F3"/>
<path d="M86.8859 99.5942C86.8859 100.6 87.2817 101.549 87.9909 102.25C88.7001 102.959 89.6485 103.355 90.6546 103.346C92.7245 103.346 94.4068 101.664 94.4068 99.5942H94.8439L94.4068 99.5859C94.4068 98.5798 94.011 97.6398 93.3018 96.9305C92.5843 96.2213 91.6442 95.8336 90.6381 95.8336C88.5682 95.8419 86.8859 97.5243 86.8859 99.5942ZM95.2892 99.5942C95.2892 102.142 93.211 104.229 90.6546 104.229C89.4176 104.237 88.2466 103.75 87.3724 102.876C86.4983 102.002 86.0117 100.839 86.0117 99.6024C86.0117 97.0459 88.0899 94.9677 90.6381 94.9595C91.8751 94.9595 93.0461 95.4378 93.9203 96.3119C94.7944 97.1861 95.281 98.3489 95.2892 99.5859V99.5942Z" fill="#9DD9F3"/>
</svg>
