<svg width="75" height="75" viewBox="0 0 75 75" fill="none" xmlns="http://www.w3.org/2000/svg">
<path d="M29.518 18.6526V32.4777H20.4887V27.5225C20.4887 22.6949 24.5441 18.6526 29.518 18.6526Z" fill="#440230"/>
<path d="M52.9401 27.6529V32.6081H43.9121V18.6528C48.8847 18.6528 52.9401 22.6951 52.9401 27.6529Z" fill="#440230"/>
<path d="M62.8867 47.2183H10.5431V74.9999H62.8867V47.2183Z" fill="#A853A4"/>
<path d="M36.7163 0C32.6596 0 29.3868 3.26092 29.3868 7.30451V32.608H44.0445V7.17301C44.0445 3.26093 40.7717 0 36.7163 0Z" fill="#A853A4"/>
<path d="M36.716 11.3481C34.491 11.3481 32.6593 13.174 32.6593 15.3905C32.6593 17.6083 34.491 19.4353 36.716 19.4353C38.9397 19.4353 40.7714 17.6083 40.7714 15.3905C40.7714 13.174 38.9397 11.3481 36.716 11.3481Z" fill="#FF4A51"/>
<path d="M62.8867 47.2183H36.7162V74.9999H62.8867V47.2183Z" fill="#440230"/>
<path d="M15.5169 55.4355H10.5431V61.9561H15.5169V55.4355Z" fill="#440230"/>
<path d="M62.8867 55.4355H46.5293V61.9561H62.8867V55.4355Z" fill="#440230"/>
<path d="M7.66455 18.6526C9.23497 18.6526 10.5428 19.9562 10.5428 21.5215C10.5428 23.0869 9.23497 24.3905 7.66455 24.3905C6.09414 24.3905 4.78632 23.0869 4.78632 21.5215C4.78632 19.9562 6.09414 18.6526 7.66455 18.6526Z" fill="#F6FF6E" fill-opacity="0.266667"/>
<path d="M66.9433 8.86987C69.167 8.86987 71 10.6957 71 12.9135C71 15.13 69.167 16.9558 66.9433 16.9558C64.7184 16.9558 62.8866 15.13 62.8866 12.9135C62.8866 10.6957 64.7184 8.86987 66.9433 8.86987Z" fill="#F6FF6E" fill-opacity="0.266667"/>
<path d="M36.7163 13.8264C37.6322 13.8264 38.4161 14.6078 38.4161 15.522C38.4161 16.4349 37.6322 17.2176 36.7163 17.2176C35.8005 17.2176 35.014 16.4349 35.014 15.522C35.014 14.4776 35.8005 13.8264 36.7163 13.8264Z" fill="#440230"/>
<path d="M66.5512 24.3906C67.2006 24.3906 67.7284 24.9167 67.7284 25.5653C67.7284 26.2138 67.2006 26.7386 66.5512 26.7386C65.9005 26.7386 65.3727 26.2138 65.3727 25.5653C65.3727 24.9167 65.9005 24.3906 66.5512 24.3906Z" fill="#FFBAFE"/>
<path d="M50.979 4.82617C51.6297 4.82617 52.1561 5.35097 52.1561 5.99954C52.1561 6.64812 51.6297 7.17291 50.979 7.17291C50.3283 7.17291 49.8005 6.64812 49.8005 5.99954C49.8005 5.35097 50.3283 4.82617 50.979 4.82617Z" fill="#FFBAFE"/>
<path d="M14.2075 8.08716C14.8582 8.08716 15.3847 8.61193 15.3847 9.26051C15.3847 9.90908 14.8582 10.4352 14.2075 10.4352C13.5569 10.4352 13.0304 9.90908 13.0304 9.26051C13.0304 8.61193 13.5569 8.08716 14.2075 8.08716Z" fill="#FFBAFE"/>
<path d="M8.4499 30.1309C9.10058 30.1309 9.62707 30.6557 9.62707 31.3042C9.62707 31.9528 9.10058 32.4776 8.4499 32.4776C7.79923 32.4776 7.27274 31.9528 7.27274 31.3042C7.27274 30.6557 7.79923 30.1309 8.4499 30.1309Z" fill="#FFBAFE"/>
<path d="M39.2012 70.0435C39.6346 70.0435 39.9864 70.3942 39.9864 70.8261C39.9864 71.2594 39.6346 71.6088 39.2012 71.6088C38.7679 71.6088 38.416 71.2594 38.416 70.8261C38.416 70.3942 38.7679 70.0435 39.2012 70.0435Z" fill="#440230"/>
<path d="M27.6856 70.8261C27.6856 70.4355 27.2937 70.0435 26.9018 70.0435H10.5431V71.739H26.9018C27.2937 71.739 27.6856 71.3484 27.6856 70.8261Z" fill="#440230"/>
<path d="M41.5562 70.0435C41.1643 70.0435 40.771 70.4355 40.771 70.8261C40.771 71.2181 41.1643 71.6088 41.5562 71.6088H62.8862V70.0435H41.5562Z" fill="#440230"/>
<path d="M66.158 70.8262C65.766 70.8262 65.3727 70.4355 65.3727 70.0435V52.1735C65.3727 51.7828 65.766 51.3909 66.158 51.3909C66.5512 51.3909 66.9432 51.7828 66.9432 52.1735V70.0435C66.9432 70.4355 66.5512 70.8262 66.158 70.8262Z" fill="#FF4A51"/>
<path d="M7.27262 70.8262C6.87937 70.8262 6.48611 70.4355 6.48611 70.0435V52.1735C6.48611 51.7828 6.87937 51.3909 7.27262 51.3909C7.66457 51.3909 8.05655 51.7828 8.05655 52.1735V70.0435C8.05655 70.4355 7.66457 70.8262 7.27262 70.8262Z" fill="#FF4A51"/>
<path d="M33.4432 37.4356C33.0513 37.4356 32.6593 37.0436 32.6593 36.6529V24.3906C32.6593 23.9999 33.0513 23.6079 33.4432 23.6079C33.8365 23.6079 34.2297 23.9999 34.2297 24.3906V36.6529C34.2297 37.0436 33.8365 37.4356 33.4432 37.4356Z" fill="#440230"/>
<path d="M36.7164 40.695C36.3231 40.695 35.9299 40.3043 35.9299 39.9123V30.9122C35.9299 30.5216 36.3231 30.1309 36.7164 30.1309C37.1083 30.1309 37.5003 30.5216 37.5003 30.9122V39.9123C37.5003 40.3043 37.1083 40.695 36.7164 40.695Z" fill="#440230"/>
<path d="M40.7714 35.8702C40.3795 35.8702 39.9862 35.4782 39.9862 35.0875V26.8701C39.9862 26.4781 40.3795 26.0874 40.7714 26.0874C41.1647 26.0874 41.5566 26.4781 41.5566 26.8701V35.0875C41.5566 35.4782 41.1647 35.8702 40.7714 35.8702Z" fill="#440230"/>
<path d="M69.4297 37.5657L62.8867 47.3484H36.7162L43.2579 37.5657H69.4297Z" fill="#A853A4"/>
<path d="M30.1719 37.5657L36.7161 47.3484H10.543L4 37.5657H30.1719Z" fill="#A853A4"/>
</svg>
