<svg width="24" height="24" viewBox="0 0 24 24" fill="none" xmlns="http://www.w3.org/2000/svg">
<mask id="mask0_64_1019" style="mask-type:alpha" maskUnits="userSpaceOnUse" x="0" y="0" width="24" height="24">
<rect x="24" y="1.04907e-06" width="24" height="24" transform="rotate(90 24 1.04907e-06)" fill="#D9D9D9"/>
</mask>
<g mask="url(#mask0_64_1019)">
<path d="M7.19081 11.0552L18.5678 11.0552C18.7806 11.0552 18.9588 11.127 19.1023 11.2707C19.246 11.4142 19.3178 11.5923 19.3178 11.8052C19.3178 12.018 19.246 12.1962 19.1023 12.3397C18.9588 12.4833 18.7806 12.5552 18.5678 12.5552L7.19081 12.5552L12.3601 17.7244C12.5087 17.8731 12.5821 18.0471 12.5803 18.2464C12.5783 18.4458 12.4998 18.623 12.3448 18.7782C12.1896 18.923 12.014 18.998 11.8178 19.0032C11.6216 19.0083 11.446 18.9333 11.2908 18.7782L4.95056 12.4379C4.85689 12.3443 4.7909 12.2455 4.75256 12.1417C4.71406 12.0378 4.69481 11.9257 4.69481 11.8052C4.69481 11.6847 4.71406 11.5725 4.75256 11.4687C4.7909 11.3648 4.85689 11.2661 4.95056 11.1724L11.2908 4.83217C11.4293 4.69367 11.6008 4.62283 11.8053 4.61967C12.0098 4.6165 12.1896 4.68734 12.3448 4.83217C12.4998 4.98734 12.5773 5.1655 12.5773 5.36667C12.5773 5.568 12.4998 5.74625 12.3448 5.90142L7.19081 11.0552Z" fill="#190011"/>
</g>
</svg>
