<svg width="80" height="75" viewBox="0 0 80 75" fill="none" xmlns="http://www.w3.org/2000/svg">
<path d="M33.1638 41.6838L36.9362 50.3683H24.519V37.894L33.1638 41.6838Z" fill="black"/>
<path d="M73.0843 1.57959L46.8377 74.9999L36.4637 50.6836L32.8498 41.9991L24.205 38.2093L0 27.9469L73.0843 1.57959Z" fill="#FFBAFE"/>
<path d="M14.6171 0C17.1325 0 19.0172 2.0525 19.0172 4.4203C19.0172 6.9473 16.9756 8.84212 14.6171 8.84212C12.1032 8.84212 10.217 6.78965 10.217 4.4203C10.217 1.89486 12.1032 0 14.6171 0Z" fill="#FCFD03"/>
<path d="M5.65865 55.2632C7.54483 55.2632 9.11563 56.8412 9.11563 58.736C9.11563 60.6309 7.54483 62.2105 5.65865 62.2105C3.77246 62.2105 2.20166 60.6309 2.20166 58.736C2.35858 56.6835 3.77246 55.2632 5.65865 55.2632Z" fill="#FCFD03"/>
<path d="M74.0276 36.3162C77.3261 36.3162 80 39.0024 80 42.316C80 45.6297 77.3261 48.3159 74.0276 48.3159C70.7291 48.3159 68.0552 45.6297 68.0552 42.316C68.0552 39.0024 70.7291 36.3162 74.0276 36.3162Z" fill="#FCFD03"/>
<path d="M73.557 21.6316C74.337 21.6316 74.9709 22.2684 74.9709 23.052C74.9709 23.8371 74.337 24.4739 73.557 24.4739C72.7755 24.4739 72.1416 23.8371 72.1416 23.052C72.1416 22.2684 72.7755 21.6316 73.557 21.6316Z" fill="#00F47F"/>
<path d="M65.6984 61.1038C66.4799 61.1038 67.1122 61.7406 67.1122 62.5257C67.1122 63.3108 66.4799 63.9461 65.6984 63.9461C64.9169 63.9461 64.283 63.3108 64.283 62.5257C64.283 61.7406 64.9169 61.1038 65.6984 61.1038Z" fill="#00F47F"/>
<path d="M31.2777 1.89478C32.0592 1.89478 32.6916 2.5316 32.6916 3.31514C32.6916 4.10025 32.0592 4.73709 31.2777 4.73709C30.4962 4.73709 29.8623 4.10025 29.8623 3.31514C29.8623 2.5316 30.4962 1.89478 31.2777 1.89478Z" fill="#00F47F"/>
<path d="M30.3349 68.0527C31.1164 68.0527 31.7487 68.688 31.7487 69.4731C31.7487 70.2582 31.1164 70.8934 30.3349 70.8934C29.5534 70.8934 28.9194 70.2582 28.9194 69.4731C28.9194 68.688 29.5534 68.0527 30.3349 68.0527Z" fill="#00F47F"/>
<path d="M2.82915 41.3684C3.61066 41.3684 4.24456 42.0037 4.24456 42.7888C4.24456 43.5739 3.61066 44.2107 2.82915 44.2107C2.0492 44.2107 1.41528 43.5739 1.41528 42.7888C1.41528 42.0037 2.0492 41.3684 2.82915 41.3684Z" fill="#00F47F"/>
<path d="M1.72952 4.89502C2.51103 4.89502 3.14495 5.53029 3.14495 6.31539C3.14495 7.10049 2.51103 7.73733 1.72952 7.73733C0.94801 7.73733 0.315674 7.10049 0.315674 6.31539C0.315674 5.53029 0.94801 4.89502 1.72952 4.89502Z" fill="#00F47F"/>
<path d="M70.8838 2.36934L37.5633 35.6839C37.2494 35.9992 37.2494 36.6313 37.5633 37.1042C37.7217 37.2619 38.0356 37.4211 38.1925 37.4211C38.5064 37.4211 38.6633 37.2619 38.8218 37.1042L72.1408 3.63205L72.927 1.42188L70.8838 2.36934Z" fill="black"/>
</svg>
