<svg width="200" height="200" viewBox="0 0 200 200" fill="none" xmlns="http://www.w3.org/2000/svg">
<path d="M199.841 99.9166C199.841 155.112 155.103 199.841 99.9249 199.841C44.7382 199.841 0 155.112 0 99.9166C0 44.7382 44.7382 0 99.9249 0C155.103 0 199.841 44.7382 199.841 99.9166Z" fill="black"/>
<path d="M167.482 146.428V55.8469C167.482 54.5109 166.303 53.4224 164.876 53.4224H34.958C33.523 53.4224 32.3438 54.5109 32.3438 55.8469V146.428H167.482Z" fill="#7B7B7B"/>
<path d="M38.4111 56.7944C38.4111 57.5943 37.7596 58.2541 36.9597 58.2541C36.1515 58.2541 35.5 57.5943 35.5 56.7944C35.5 55.9945 36.1515 55.343 36.9597 55.343C37.7596 55.343 38.4111 55.9945 38.4111 56.7944Z" fill="white"/>
<path d="M48.1728 56.7944C48.1728 57.5943 47.5213 58.2541 46.7132 58.2541C45.9132 58.2541 45.2617 57.5943 45.2617 56.7944C45.2617 55.9945 45.9132 55.343 46.7132 55.343C47.5213 55.343 48.1728 55.9945 48.1728 56.7944Z" fill="white"/>
<path d="M43.2744 56.7944C43.2744 57.5943 42.6229 58.2541 41.823 58.2541C41.0148 58.2541 40.3633 57.5943 40.3633 56.7944C40.3633 55.9945 41.0148 55.343 41.823 55.343C42.6229 55.343 43.2744 55.9945 43.2744 56.7944Z" fill="white"/>
<path d="M156.129 61.586H53.5079L52.7656 60.8439V58.9966L53.5079 58.2544H156.129L156.872 58.9966V60.8439L156.129 61.586Z" fill="white"/>
<path d="M164.421 64.9185H35.4023V143.806H164.421V64.9185Z" fill="white"/>
<path d="M128.476 119.32H127V92.7821C127 90.3081 124.988 88.2959 122.514 88.2959H77.8417C75.3677 88.2959 73.3555 90.3081 73.3555 92.7821V116.722H71.8711V92.7821C71.8711 89.4917 74.5513 86.8115 77.8417 86.8115H122.514C125.804 86.8115 128.476 89.4917 128.476 92.7821V119.32Z" fill="#7B7B7B"/>
<path d="M100.93 87.8606H99.4453V117.837H100.93V87.8606Z" fill="#7B7B7B"/>
<path d="M108.315 102.852H92.0522C88.9597 102.852 86.4609 100.345 86.4609 97.2608V78.7223C86.4609 75.6298 88.9597 73.1228 92.0522 73.1228H108.315C111.407 73.1228 113.914 75.6298 113.914 78.7223V97.2608C113.914 100.345 111.407 102.852 108.315 102.852Z" fill="#F2818E"/>
<path d="M59.1758 130.009V117.755C59.1758 114.67 61.6828 112.172 64.767 112.172H78.9596C82.0521 112.172 84.5508 114.67 84.5508 117.755V130.009C84.5508 133.102 82.0521 135.592 78.9596 135.592H64.767C61.6828 135.592 59.1758 133.102 59.1758 130.009Z" fill="#F2818E"/>
<path d="M87.2344 130.009V117.755C87.2344 114.67 89.7331 112.172 92.8174 112.172H107.01C110.094 112.172 112.601 114.67 112.601 117.755V130.009C112.601 133.102 110.094 135.592 107.01 135.592H92.8174C89.7331 135.592 87.2344 133.102 87.2344 130.009Z" fill="#F2818E"/>
<path d="M115.262 130.009V117.755C115.262 114.67 117.769 112.172 120.853 112.172H135.045C138.13 112.172 140.637 114.67 140.637 117.755V130.009C140.637 133.102 138.13 135.592 135.045 135.592H120.853C117.769 135.592 115.262 133.102 115.262 130.009Z" fill="#F2818E"/>
<path d="M109.25 79.2917H90.8438V82.1616H109.25V79.2917Z" fill="white"/>
<path d="M109.25 85.4263H90.8438V88.2961H109.25V85.4263Z" fill="white"/>
<path d="M109.25 91.563H90.8438V94.4328H109.25V91.563Z" fill="white"/>
<path d="M81.0628 119.569H62.6562V122.439H81.0628V119.569Z" fill="white"/>
<path d="M81.0628 125.703H62.6562V128.573H81.0628V125.703Z" fill="white"/>
<path d="M109.508 119.569H91.1016V122.439H109.508V119.569Z" fill="white"/>
<path d="M109.508 125.703H91.1016V128.573H109.508V125.703Z" fill="white"/>
<path d="M137.945 119.569H119.547V122.439H137.945V119.569Z" fill="white"/>
<path d="M137.945 125.703H119.547V128.573H137.945V125.703Z" fill="white"/>
</svg>
