<svg width="76" height="75" viewBox="0 0 76 75" fill="none" xmlns="http://www.w3.org/2000/svg">
<path d="M52.5112 69.0716C53.2024 69.7612 53.4783 70.5885 53.4783 71.5534C53.4783 73.4832 51.958 75.0001 50.0237 75.0001H25.9794C25.0123 75.0001 24.1831 74.5857 23.4919 74.0351C22.8021 73.4832 22.5248 72.5183 22.5248 71.5534C22.5248 69.6236 24.0452 68.1067 25.9794 68.1067H50.1617C50.9909 67.969 51.958 68.382 52.5112 69.0716Z" fill="#7C0E12"/>
<path d="M71.5796 13.0984H4.42173C1.93562 13.0984 0 15.0283 0 17.51V63.6949C0 66.1767 1.93562 68.1065 4.42173 68.1065H71.5796C74.0658 68.1065 76 66.1767 76 63.6949V17.3724C76 15.0282 74.0658 13.0984 71.5796 13.0984Z" fill="#440230"/>
<path d="M70.8894 18.1982H5.25183V57.9041H70.8894V18.1982Z" fill="#FFFFFC"/>
<path d="M33.7177 35.4319C33.3038 35.4319 32.8885 35.019 32.8885 34.606V31.9852C32.8885 31.5723 33.3038 31.158 33.7177 31.158C34.1316 31.158 34.5468 31.5723 34.5468 31.9852V34.606C34.5468 35.019 34.1316 35.4319 33.7177 35.4319Z" fill="#7C0E12"/>
<path d="M37.172 35.4319C36.7567 35.4319 36.3428 35.019 36.3428 34.606V31.9852C36.3428 31.5723 36.7567 31.158 37.172 31.158C37.5859 31.158 38.0011 31.5723 38.0011 31.9852V34.606C38.0011 35.019 37.5859 35.4319 37.172 35.4319Z" fill="#7C0E12"/>
<path d="M40.6269 35.4319C40.213 35.4319 39.7978 35.019 39.7978 34.606V31.9852C39.7978 31.5723 40.213 31.158 40.6269 31.158C41.0422 31.158 41.4561 31.5723 41.4561 31.9852V34.606C41.4561 35.019 41.0422 35.4319 40.6269 35.4319Z" fill="#7C0E12"/>
<path d="M44.0813 35.4319C43.666 35.4319 43.2521 35.019 43.2521 34.606V31.9852C43.2521 31.5723 43.666 31.158 44.0813 31.158C44.4966 31.158 44.9105 31.5723 44.9105 31.9852V34.606C44.9105 35.019 44.4966 35.4319 44.0813 35.4319Z" fill="#7C0E12"/>
<path d="M47.5363 35.4319C47.1225 35.4319 46.7072 35.019 46.7072 34.606V31.9852C46.7072 31.5723 47.1225 31.158 47.5363 31.158C47.9502 31.158 48.3655 31.5723 48.3655 31.9852V34.606C48.3655 35.019 47.9502 35.4319 47.5363 35.4319Z" fill="#7C0E12"/>
<path d="M50.9908 29.3657H48.3653C47.9501 29.3657 47.5362 28.9527 47.5362 28.5384C47.5362 28.1255 47.9501 27.7112 48.3653 27.7112H50.9908C51.4061 27.7112 51.8199 28.1255 51.8199 28.5384C51.8199 28.9527 51.4061 29.3657 50.9908 29.3657Z" fill="#7C0E12"/>
<path d="M50.9908 25.919H48.3653C47.9501 25.919 47.5362 25.5061 47.5362 25.0932C47.5362 24.6789 47.9501 24.2659 48.3653 24.2659H50.9908C51.4061 24.2659 51.8199 24.6789 51.8199 25.0932C51.8199 25.5061 51.4061 25.919 50.9908 25.919Z" fill="#7C0E12"/>
<path d="M50.9908 22.4722H48.3653C47.9501 22.4722 47.5362 22.0592 47.5362 21.6449C47.5362 21.232 47.9501 20.8176 48.3653 20.8176H50.9908C51.4061 20.8176 51.8199 21.232 51.8199 21.6449C51.8199 22.0592 51.4061 22.4722 50.9908 22.4722Z" fill="#7C0E12"/>
<path d="M50.9908 19.0257H48.3653C47.9501 19.0257 47.5362 18.6128 47.5362 18.1984C47.5362 17.7855 47.9501 17.3726 48.3653 17.3726H50.9908C51.4061 17.3726 51.8199 17.7855 51.8199 18.1984C51.8199 18.6128 51.4061 19.0257 50.9908 19.0257Z" fill="#7C0E12"/>
<path d="M11.6083 3.58569C12.8514 3.58569 13.8185 4.55058 13.8185 5.79079C13.8185 7.03236 12.8514 7.9973 11.6083 7.9973C10.3639 7.9973 9.39679 7.03236 9.39679 5.79079C9.53476 4.55058 10.5019 3.58569 11.6083 3.58569Z" fill="#F6FF6E"/>
<path d="M69.0929 0.137451C71.0272 0.137451 72.5476 1.65432 72.5476 3.58551C72.5476 5.51533 71.0272 7.03219 69.0929 7.03219C67.1587 7.03219 65.637 5.51533 65.637 3.58551C65.637 1.65432 67.1587 0.137451 69.0929 0.137451Z" fill="#F6FF6E"/>
<path d="M66.4668 31.158V49.2187L63.0122 53.4927L59.5576 49.2187V31.158H66.4668Z" fill="#440230"/>
<path d="M50.9907 34.606V10.4778L26.8084 34.606H50.9907ZM55.2744 18.1984V38.8786H16.4446L37.1722 18.1984L42.4231 12.9595L55.4124 0V18.1984H55.2744Z" fill="#FFBAFE"/>
<path d="M60.9391 6.20508C61.6262 6.20508 62.1835 6.75977 62.1835 7.44529C62.1835 8.13082 61.6262 8.68551 60.9391 8.68551C60.2534 8.68551 59.696 8.13082 59.696 7.44529C59.696 6.75977 60.2534 6.20508 60.9391 6.20508Z" fill="#FCFD03"/>
<path d="M39.2438 61.7651C39.5211 62.0404 39.797 62.4547 39.797 63.0053C39.797 63.4196 39.659 63.9702 39.2438 64.2469C38.9678 64.5222 38.5539 64.7975 38.0007 64.7975C37.0336 64.7975 36.2044 63.9702 36.2044 63.0053C36.2044 62.5924 36.3424 62.0404 36.7563 61.7651C37.1715 61.4898 37.4475 61.2131 38.0007 61.2131C38.5539 61.2131 38.9678 61.4898 39.2438 61.7651Z" fill="#FFBAFE"/>
<path d="M35.7893 4.41284C36.4764 4.41284 37.0337 4.96753 37.0337 5.65306C37.0337 6.33858 36.4764 6.89465 35.7893 6.89465C35.1022 6.89465 34.5463 6.33858 34.5463 5.65306C34.5463 4.96753 35.1022 4.41284 35.7893 4.41284Z" fill="#FCFD03"/>
<path d="M28.4671 52.6653C28.9247 52.6653 29.2963 53.036 29.2963 53.4925C29.2963 53.9491 28.9247 54.3198 28.4671 54.3198C28.0095 54.3198 27.6379 53.9491 27.6379 53.4925C27.6379 53.036 28.0095 52.6653 28.4671 52.6653Z" fill="#7C0E12"/>
<path d="M19.4852 2.75854C20.171 2.75854 20.7283 3.31324 20.7283 3.99876C20.7283 4.68428 20.171 5.24031 19.4852 5.24031C18.7981 5.24031 18.2408 4.68428 18.2408 3.99876C18.2408 3.31324 18.7981 2.75854 19.4852 2.75854Z" fill="#FCFD03"/>
<path d="M16.4446 24.2659C16.9022 24.2659 17.2738 24.6352 17.2738 25.0932C17.2738 25.5497 16.9022 25.919 16.4446 25.919C15.987 25.919 15.6155 25.5497 15.6155 25.0932C15.6155 24.6352 15.987 24.2659 16.4446 24.2659Z" fill="#7C0E12"/>
<path d="M3.87057 7.85962C4.55766 7.85962 5.11363 8.41431 5.11363 9.09983C5.11363 9.78536 4.55766 10.3401 3.87057 10.3401C3.18347 10.3401 2.6275 9.78536 2.6275 9.09983C2.6275 8.41431 3.18347 7.85962 3.87057 7.85962Z" fill="#FCFD03"/>
<path d="M69.9203 72.5183H61.2162C60.8009 72.5183 60.387 72.1053 60.387 71.691C60.387 71.2781 60.8009 70.8638 61.2162 70.8638H69.9203C70.3356 70.8638 70.7509 71.2781 70.7509 71.691C70.8888 72.1053 70.4736 72.5183 69.9203 72.5183Z" fill="#FCFD03"/>
<path d="M14.6483 72.5183H5.94286C5.52896 72.5183 5.11371 72.1053 5.11371 71.691C5.11371 71.2781 5.52896 70.8638 5.94286 70.8638H14.6483C15.0636 70.8638 15.4775 71.2781 15.4775 71.691C15.6155 72.1053 15.2016 72.5183 14.6483 72.5183Z" fill="#FCFD03"/>
<path d="M26.8086 53.4925C26.8086 53.0796 26.3948 52.6653 25.9795 52.6653H5.25183V54.4575H25.9795C26.3934 54.4575 26.8086 54.0445 26.8086 53.4925Z" fill="#7C0E12"/>
<path d="M12.9902 31.1578C13.4055 31.1578 13.8194 30.7448 13.8194 30.3305V18.1982H12.0231V30.3305C12.161 30.7448 12.4383 31.1578 12.9902 31.1578Z" fill="#7C0E12"/>
<path d="M16.4442 23.4385C16.8581 23.4385 17.2733 23.0242 17.2733 22.6112V18.1982H15.4771V22.4722C15.615 23.0242 15.891 23.4385 16.4442 23.4385Z" fill="#7C0E12"/>
<path d="M66.4668 28.676H59.5576V31.2968H66.4668V28.676Z" fill="#FCFD03"/>
<path d="M66.4668 24.5413H59.5576V28.8152H66.4668V24.5413Z" fill="#7C0E12"/>
</svg>
