<svg width="200" height="200" viewBox="0 0 200 200" fill="none" xmlns="http://www.w3.org/2000/svg">
<path d="M199.841 99.9249C199.841 155.112 155.103 199.85 99.9249 199.85C44.7382 199.85 0 155.112 0 99.9249C0 44.7382 44.7382 0 99.9249 0C155.103 0 199.841 44.7382 199.841 99.9249Z" fill="black"/>
<path d="M122.014 57.3887C122.014 69.5855 112.118 79.4733 99.921 79.4733C87.7159 79.4733 77.8281 69.5855 77.8281 57.3887C77.8281 45.1836 87.7159 35.2959 99.921 35.2959C112.118 35.2959 122.014 45.1836 122.014 57.3887Z" fill="#7B7B7B"/>
<path d="M116.935 57.3873C116.935 66.7968 109.307 74.4332 99.8974 74.4332C90.4797 74.4332 82.8516 66.7968 82.8516 57.3873C82.8516 47.9696 90.4797 40.3333 99.8974 40.3333C109.307 40.3333 116.935 47.9696 116.935 57.3873Z" fill="#353131"/>
<path d="M111.434 57.3881C111.434 63.7381 106.28 68.8922 99.9299 68.8922C93.5717 68.8922 88.4258 63.7381 88.4258 57.3881C88.4258 51.03 93.5717 45.884 99.9299 45.884C106.28 45.884 111.434 51.03 111.434 57.3881Z" fill="#7B7B7B"/>
<path d="M105.417 57.389C105.417 60.432 102.943 62.8978 99.8999 62.8978C96.8486 62.8978 94.3828 60.432 94.3828 57.389C94.3828 54.3378 96.8486 51.8638 99.8999 51.8638C102.943 51.8638 105.417 54.3378 105.417 57.389Z" fill="#353131"/>
<path d="M106.476 149.058C109.527 153.272 113.914 158.376 114.887 164.553H117.584C118.73 158.112 120.363 148.926 120.849 146.204C121.608 141.866 120.074 140.539 120.074 140.539L110.541 128.21C110.541 128.21 103.358 144.761 106.476 149.058Z" fill="#9DD9F3"/>
<path d="M79.7434 140.539C79.7434 140.539 78.2095 141.866 78.9765 146.204C79.4548 148.926 81.0876 158.112 82.2339 164.553H84.9306C85.9037 158.376 90.2909 153.272 93.3421 149.058C96.4594 144.761 89.2766 128.21 89.2766 128.21L79.7434 140.539Z" fill="#9DD9F3"/>
<path fill-rule="evenodd" clip-rule="evenodd" d="M110.97 137.019L110.912 71.2764L88.8438 71.3506L88.8932 137.019H110.97Z" fill="#F2818E"/>
<path d="M103.873 137.018H96.0143L95.9648 71.3253L103.824 71.3005L103.873 137.018Z" fill="#440230"/>
<path fill-rule="evenodd" clip-rule="evenodd" d="M99.8283 53.5208L88.8438 71.35C88.852 72.3891 90.5261 73.222 92.596 73.2138C94.4927 73.2055 95.9936 72.4798 96.2327 71.5562C96.4801 72.4798 97.9893 73.1973 99.886 73.189C101.791 73.189 103.292 72.4551 103.523 71.5315C103.77 72.4551 105.279 73.1726 107.176 73.1726C109.246 73.1643 110.92 72.3149 110.912 71.2758L99.8283 53.5208Z" fill="white"/>
<path fill-rule="evenodd" clip-rule="evenodd" d="M94.6094 62.0313L105.14 61.9983L99.846 53.5208L94.6094 62.0313Z" fill="black"/>
<path d="M99.9503 180.644C99.9503 180.644 120.361 147.443 99.9173 147.476C79.4738 147.517 99.9503 180.644 99.9503 180.644Z" fill="#7B7B7B"/>
<path fill-rule="evenodd" clip-rule="evenodd" d="M88.8125 140.588V147.474C88.8125 148.744 89.8516 149.791 91.1298 149.791H108.563C109.841 149.791 110.881 148.744 110.881 147.474V140.588H88.8125Z" fill="white"/>
<path d="M110.978 136.762H88.9102V140.589H110.978V136.762Z" fill="black"/>
</svg>
