<svg width="75" height="75" viewBox="0 0 75 75" fill="none" xmlns="http://www.w3.org/2000/svg">
<path d="M34.325 10.0352H17.9142V21.655H34.325V10.0352Z" fill="#440230"/>
<path d="M71.9998 21.3899H4V71.567C4 73.5471 5.57539 74.9999 7.41424 74.9999H68.5869C70.4244 74.9999 71.9998 73.4166 71.9998 71.567V21.3899Z" fill="#A853A4"/>
<path d="M11.3516 3.30103C12.2703 3.30103 13.0581 4.09335 13.0581 5.0175C13.0581 5.94165 12.2703 6.73397 11.3516 6.73397C10.4328 6.73397 9.64508 5.94165 9.64508 5.0175C9.64508 3.96151 10.4328 3.30103 11.3516 3.30103Z" fill="#FCFD03"/>
<path d="M58.0855 0C59.9231 0 61.3675 1.45279 61.3675 3.3011C61.3675 5.1494 59.9231 6.60219 58.0855 6.60219C56.2467 6.60219 54.8023 5.1494 54.8023 3.3011C54.8023 1.45279 56.2467 0 58.0855 0Z" fill="#FCFD03"/>
<path d="M68.0628 50.3088H40.1011V70.9065H68.0628V50.3088Z" fill="#A853A4"/>
<path d="M36.0313 50.3088H8.06956V70.9065H36.0313V50.3088Z" fill="#FCFD03"/>
<path d="M36.0313 25.4846H8.06956V46.0823H36.0313V25.4846Z" fill="#FFFFFC"/>
<path d="M68.0628 25.4846H40.1011V46.0823H68.0628V25.4846Z" fill="#FF4A51"/>
<path d="M18.703 10.0352V21.655H4V13.6C4 11.7517 5.57539 10.1683 7.41424 10.1683H18.703V10.0352Z" fill="#440230"/>
<path d="M72 13.4682V21.5232H33.5373V9.9021H68.7194C70.5569 10.0352 72 11.6199 72 13.4682Z" fill="#7C0E12"/>
<path d="M70.819 1.71655C71.4718 1.71655 71.9999 2.24912 71.9999 2.90438C71.9999 3.56095 71.4718 4.09349 70.819 4.09349C70.1663 4.09349 69.6381 3.56095 69.6381 2.90438C69.6381 2.24912 70.1663 1.71655 70.819 1.71655Z" fill="#FFBAFE"/>
<path d="M50.3394 4.09351C50.9921 4.09351 51.5216 4.62477 51.5216 5.28133C51.5216 5.9379 50.9921 6.47048 50.3394 6.47048C49.6879 6.47048 49.1585 5.9379 49.1585 5.28133C49.1585 4.62477 49.6879 4.09351 50.3394 4.09351Z" fill="#FFBAFE"/>
<path d="M35.5058 3.30103C36.1585 3.30103 36.6867 3.83359 36.6867 4.48885C36.6867 5.14542 36.1585 5.678 35.5058 5.678C34.853 5.678 34.3249 5.14542 34.3249 4.48885C34.3249 3.83359 34.853 3.30103 35.5058 3.30103Z" fill="#FFBAFE"/>
<path d="M19.0977 0.792236C19.7492 0.792236 20.2786 1.3235 20.2786 1.98007C20.2786 2.63663 19.7492 3.16921 19.0977 3.16921C18.445 3.16921 17.9142 2.63663 17.9142 1.98007C17.9142 1.3235 18.445 0.792236 19.0977 0.792236Z" fill="#FFBAFE"/>
<path d="M32.6184 31.2934H11.3516C10.9571 31.2934 10.5639 30.8979 10.5639 30.5024C10.5639 30.1056 10.9571 29.7087 11.3516 29.7087H32.7495C33.144 29.7087 33.5372 30.1056 33.5372 30.5024C33.5372 30.8979 33.144 31.2934 32.6184 31.2934Z" fill="#FFBAFE"/>
<path d="M32.6184 34.5945H11.3516C10.9571 34.5945 10.5639 34.199 10.5639 33.8035C10.5639 33.4067 10.9571 33.0112 11.3516 33.0112H32.7495C33.144 33.0112 33.5372 33.4067 33.5372 33.8035C33.5372 34.199 33.144 34.5945 32.6184 34.5945Z" fill="#FFBAFE"/>
<path d="M32.6184 37.8969H11.3516C10.9571 37.8969 10.5639 37.5001 10.5639 37.1033C10.5639 36.7077 10.9571 36.3123 11.3516 36.3123H32.7495C33.144 36.3123 33.5372 36.7077 33.5372 37.1033C33.5372 37.5001 33.144 37.8969 32.6184 37.8969Z" fill="#FFBAFE"/>
<path d="M26.0547 41.1967H11.3516C10.9571 41.1967 10.5639 40.8012 10.5639 40.4057C10.5639 40.0089 10.9571 39.6121 11.3516 39.6121H26.1857C26.5789 39.6121 26.9734 40.0089 26.9734 40.4057C26.9734 40.8012 26.5789 41.1967 26.0547 41.1967Z" fill="#FFBAFE"/>
<path d="M64.6484 31.2934H43.3816C42.9897 31.2934 42.5952 30.8979 42.5952 30.5024C42.5952 30.1056 42.9897 29.7087 43.3816 29.7087H64.7808C65.174 29.7087 65.5672 30.1056 65.5672 30.5024C65.4374 30.8979 65.174 31.2934 64.6484 31.2934Z" fill="#FFBAFE"/>
<path d="M64.6484 34.5945H43.3816C42.9897 34.5945 42.5952 34.199 42.5952 33.8035C42.5952 33.4067 42.9897 33.0112 43.3816 33.0112H64.7808C65.174 33.0112 65.5672 33.4067 65.5672 33.8035C65.4374 34.199 65.174 34.5945 64.6484 34.5945Z" fill="#FFBAFE"/>
<path d="M64.6484 37.8969H43.3816C42.9897 37.8969 42.5952 37.5001 42.5952 37.1033C42.5952 36.7077 42.9897 36.3123 43.3816 36.3123H64.7808C65.174 36.3123 65.5672 36.7077 65.5672 37.1033C65.4374 37.5001 65.174 37.8969 64.6484 37.8969Z" fill="#FFBAFE"/>
<path d="M58.0859 41.1967H43.3816C42.9897 41.1967 42.5952 40.8012 42.5952 40.4057C42.5952 40.0089 42.9897 39.6121 43.3816 39.6121H58.217C58.6102 39.6121 59.0047 40.0089 59.0047 40.4057C59.0047 40.8012 58.6102 41.1967 58.0859 41.1967Z" fill="#FFBAFE"/>
<path d="M32.6184 56.1188H11.3516C10.9571 56.1188 10.5639 55.722 10.5639 55.3252C10.5639 54.9297 10.9571 54.5342 11.3516 54.5342H32.7495C33.144 54.5342 33.5372 54.9297 33.5372 55.3252C33.5372 55.722 33.144 56.1188 32.6184 56.1188Z" fill="#A853A4"/>
<path d="M32.6184 59.4186H11.3516C10.9571 59.4186 10.5639 59.0231 10.5639 58.6276C10.5639 58.2308 10.9571 57.834 11.3516 57.834H32.7495C33.144 57.834 33.5372 58.2308 33.5372 58.6276C33.5372 59.0231 33.144 59.4186 32.6184 59.4186Z" fill="#A853A4"/>
<path d="M32.6184 62.7196H11.3516C10.9571 62.7196 10.5639 62.3241 10.5639 61.9286C10.5639 61.5318 10.9571 61.135 11.3516 61.135H32.7495C33.144 61.135 33.5372 61.5318 33.5372 61.9286C33.5372 62.3241 33.144 62.7196 32.6184 62.7196Z" fill="#A853A4"/>
<path d="M26.0547 66.0221H11.3516C10.9571 66.0221 10.5639 65.6253 10.5639 65.2285C10.5639 64.8317 10.9571 64.4375 11.3516 64.4375H26.1857C26.5789 64.4375 26.9734 64.8317 26.9734 65.2285C26.9734 65.6253 26.5789 66.0221 26.0547 66.0221Z" fill="#A853A4"/>
<path d="M64.6484 56.1188H43.3816C42.9897 56.1188 42.5952 55.722 42.5952 55.3252C42.5952 54.9297 42.9897 54.5342 43.3816 54.5342H64.7808C65.174 54.5342 65.5672 54.9297 65.5672 55.3252C65.5672 55.722 65.174 56.1188 64.6484 56.1188Z" fill="#7C0E12"/>
<path d="M64.6484 59.4186H43.3816C42.9897 59.4186 42.5952 59.0231 42.5952 58.6276C42.5952 58.2308 42.9897 57.834 43.3816 57.834H64.7808C65.174 57.834 65.5672 58.2308 65.5672 58.6276C65.4374 59.0231 65.174 59.4186 64.6484 59.4186Z" fill="#7C0E12"/>
<path d="M64.6484 62.7196H43.3816C42.9897 62.7196 42.5952 62.3241 42.5952 61.9286C42.5952 61.5318 42.9897 61.135 43.3816 61.135H64.7808C65.174 61.135 65.5672 61.5318 65.5672 61.9286C65.4374 62.3241 65.174 62.7196 64.6484 62.7196Z" fill="#7C0E12"/>
<path d="M58.0859 66.0221H43.3816C42.9897 66.0221 42.5952 65.6253 42.5952 65.2285C42.5952 64.8317 42.9897 64.4375 43.3816 64.4375H58.217C58.6102 64.4375 59.0047 64.8317 59.0047 65.2285C58.8736 65.6253 58.6102 66.0221 58.0859 66.0221Z" fill="#7C0E12"/>
</svg>
