<svg width="200" height="200" viewBox="0 0 200 200" fill="none" xmlns="http://www.w3.org/2000/svg">
<path d="M199.841 99.9167C199.841 155.103 155.103 199.841 99.9166 199.841C44.7299 199.841 0 155.103 0 99.9167C0 44.7382 44.7299 0 99.9166 0C155.103 0 199.841 44.7382 199.841 99.9167Z" fill="black"/>
<path d="M105.304 138.891V126.323H85.2975V138.891C85.2975 144.021 71.707 148.177 71.707 148.177H118.903C118.903 148.177 105.304 144.021 105.304 138.891Z" fill="white"/>
<path d="M120.939 149.718C120.939 150.823 120.057 151.738 118.96 151.738H71.6902C70.5933 151.738 69.7109 150.823 69.7109 149.718C69.7109 148.596 70.5933 147.681 71.6902 147.681H118.96C120.057 147.681 120.939 148.596 120.939 149.718Z" fill="#7B7B7B"/>
<path d="M28.7031 50.5361V122.629C28.7031 125.688 31.1853 128.17 34.2449 128.17H156.37C159.421 128.17 161.903 125.688 161.903 122.629V50.5361C161.903 47.4766 159.421 44.9944 156.37 44.9944H34.2449C31.1853 44.9944 28.7031 47.4766 28.7031 50.5361Z" fill="#7B7B7B"/>
<path d="M155.688 50.3962H35.1133V122.06H155.688V50.3962Z" fill="white"/>
<path d="M155.713 117.416H35.1133V122.059H155.713V117.416Z" fill="white"/>
<path d="M155.713 50.3962H35.1133V56.9441H155.713V50.3962Z" fill="white"/>
<path d="M155.686 56.9436H35.1445V84.5534H155.686V56.9436Z" fill="#0D1733"/>
<path d="M140.17 58.5925H104.66V76.6692H140.17V58.5925Z" fill="white"/>
<path d="M140.169 78.1702H105.047V79.8195H140.169V78.1702Z" fill="#7B7B7B"/>
<path d="M134.389 81.2466H105.047V82.9041H134.389V81.2466Z" fill="#7B7B7B"/>
<path d="M142.191 70.1544L145.498 67.6392L142.191 65.1157V70.1544Z" fill="#7B7B7B"/>
<path d="M88.4047 58.5925H52.8945V76.6692H88.4047V58.5925Z" fill="white"/>
<path d="M88.0171 78.1702H52.8945V79.8195H88.0171V78.1702Z" fill="#7B7B7B"/>
<path d="M87.9935 81.2466H58.6602V82.9041H87.9935V81.2466Z" fill="#7B7B7B"/>
<path d="M50.8933 70.1544L47.5781 67.6392L50.8933 65.1157V70.1544Z" fill="#7B7B7B"/>
<path d="M53.4186 91.9923C53.4186 95.2332 50.7962 97.8557 47.5552 97.8557C44.3143 97.8557 41.6836 95.2332 41.6836 91.9923C41.6836 88.7513 44.3143 86.1289 47.5552 86.1289C50.7962 86.1289 53.4186 88.7513 53.4186 91.9923Z" fill="#0D1733"/>
<path d="M52.1004 100.617H43.293V102.967H52.1004V100.617Z" fill="#0D1733"/>
<path d="M52.1004 104.205H43.293V106.547H52.1004V104.205Z" fill="#0D1733"/>
<path d="M85.3092 91.9923C85.3092 95.2332 82.6785 97.8557 79.4376 97.8557C76.1966 97.8557 73.5742 95.2332 73.5742 91.9923C73.5742 88.7513 76.1966 86.1289 79.4376 86.1289C82.6785 86.1289 85.3092 88.7513 85.3092 91.9923Z" fill="#0D1733"/>
<path d="M83.8391 100.617H75.0234V102.967H83.8391V100.617Z" fill="#0D1733"/>
<path d="M83.8391 104.205H75.0234V106.547H83.8391V104.205Z" fill="#0D1733"/>
<path d="M117.204 91.9923C117.204 95.2332 114.573 97.8557 111.34 97.8557C108.099 97.8557 105.469 95.2332 105.469 91.9923C105.469 88.7513 108.099 86.1289 111.34 86.1289C114.573 86.1289 117.204 88.7513 117.204 91.9923Z" fill="#0D1733"/>
<path d="M115.734 100.617H106.918V102.967H115.734V100.617Z" fill="#0D1733"/>
<path d="M115.734 104.205H106.918V106.547H115.734V104.205Z" fill="#0D1733"/>
<path d="M149.086 91.9923C149.086 95.2332 146.455 97.8557 143.223 97.8557C139.982 97.8557 137.359 95.2332 137.359 91.9923C137.359 88.7513 139.982 86.1289 143.223 86.1289C146.455 86.1289 149.086 88.7513 149.086 91.9923Z" fill="#0D1733"/>
<path d="M147.616 100.617H138.809V102.967H147.616V100.617Z" fill="#0D1733"/>
<path d="M147.616 104.205H138.809V106.547H147.616V104.205Z" fill="#0D1733"/>
<path d="M155.713 108.205H35.1133V117.417H155.713V108.205Z" fill="#7B7B7B"/>
<path d="M75.7818 109.812H44.9062V111.239H75.7818V109.812Z" fill="white"/>
<path d="M75.7818 112.172H44.9062V113.607H75.7818V112.172Z" fill="white"/>
<path d="M75.7818 114.537H44.9062V115.972H75.7818V114.537Z" fill="white"/>
<path d="M111.7 109.812H80.8242V111.239H111.7V109.812Z" fill="white"/>
<path d="M111.7 112.172H80.8242V113.607H111.7V112.172Z" fill="white"/>
<path d="M111.7 114.537H80.8242V115.972H111.7V114.537Z" fill="white"/>
<path d="M147.618 109.812H116.742V111.239H147.618V109.812Z" fill="white"/>
<path d="M147.618 112.172H116.742V113.607H147.618V112.172Z" fill="white"/>
<path d="M147.618 114.537H116.742V115.972H147.618V114.537Z" fill="white"/>
<path fill-rule="evenodd" clip-rule="evenodd" d="M138.558 98.6057H162.391C165.566 98.6057 168.163 101.203 168.163 104.37V157.982C168.163 161.157 165.566 163.763 162.391 163.763H138.558C135.391 163.763 132.785 161.157 132.785 157.982V104.37C132.785 101.203 135.391 98.6057 138.558 98.6057Z" fill="#7B7B7B"/>
<path d="M167.08 104.378H133.879V158.979H167.08V104.378Z" fill="white"/>
<path d="M153.891 102.308H147.055V103.001H153.891V102.308Z" fill="#353131"/>
<path fill-rule="evenodd" clip-rule="evenodd" d="M150.467 100.206L151.111 100.85L150.467 101.501L149.824 100.85L150.467 100.206Z" fill="#353131"/>
<path fill-rule="evenodd" clip-rule="evenodd" d="M150.487 159.862C151.304 159.862 151.964 160.522 151.964 161.338C151.964 162.146 151.304 162.806 150.487 162.806C149.679 162.806 149.02 162.146 149.02 161.338C149.02 160.522 149.679 159.862 150.487 159.862Z" fill="#353131"/>
<path d="M167.246 104.213H133.781V128.615H167.246V104.213Z" fill="#0D1733"/>
<path d="M164.156 108.626H152.371V120.279H164.156V108.626Z" fill="white"/>
<path d="M164.153 121.242H152.5V122.306H164.153V121.242Z" fill="#7B7B7B"/>
<path d="M162.231 123.239H152.5V124.303H162.231V123.239Z" fill="#7B7B7B"/>
<path d="M149.198 108.626H137.422V120.279H149.198V108.626Z" fill="white"/>
<path d="M149.066 121.242H137.422V122.306H149.066V121.242Z" fill="#7B7B7B"/>
<path d="M149.055 123.239H139.324V124.303H149.055V123.239Z" fill="#7B7B7B"/>
<path d="M136.165 115.669L134.812 114.638L136.165 113.607V115.669Z" fill="#7B7B7B"/>
<path d="M165.16 113.607L166.513 114.638L165.16 115.669V113.607Z" fill="#7B7B7B"/>
<path d="M144.674 136.557C144.674 138.776 142.868 140.582 140.642 140.582C138.415 140.582 136.617 138.776 136.617 136.557C136.617 134.322 138.415 132.525 140.642 132.525C142.868 132.525 144.674 134.322 144.674 136.557Z" fill="#0D1733"/>
<path d="M143.799 142.487H137.746V144.095H143.799V142.487Z" fill="#0D1733"/>
<path d="M143.799 144.943H137.746V146.559H143.799V144.943Z" fill="#0D1733"/>
<path d="M154.08 136.557C154.08 138.776 152.274 140.582 150.048 140.582C147.821 140.582 146.023 138.776 146.023 136.557C146.023 134.322 147.821 132.525 150.048 132.525C152.274 132.525 154.08 134.322 154.08 136.557Z" fill="#0D1733"/>
<path d="M153.085 142.487H147.023V144.095H153.085V142.487Z" fill="#0D1733"/>
<path d="M153.085 144.943H147.023V146.559H153.085V144.943Z" fill="#0D1733"/>
<path d="M163.495 136.557C163.495 138.776 161.689 140.582 159.462 140.582C157.236 140.582 155.43 138.776 155.43 136.557C155.43 134.322 157.236 132.525 159.462 132.525C161.689 132.525 163.495 134.322 163.495 136.557Z" fill="#0D1733"/>
<path d="M162.491 142.487H156.43V144.095H162.491V142.487Z" fill="#0D1733"/>
<path d="M162.491 144.943H156.43V146.559H162.491V144.943Z" fill="#0D1733"/>
<path d="M166.999 149.503H133.781V157.634H166.999V149.503Z" fill="#7B7B7B"/>
<path d="M144.982 150.923H136.488V152.184H144.982V150.923Z" fill="white"/>
<path d="M144.982 153.008H136.488V154.278H144.982V153.008Z" fill="white"/>
<path d="M144.982 155.104H136.488V156.366H144.982V155.104Z" fill="white"/>
<path d="M154.85 150.923H146.348V152.184H154.85V150.923Z" fill="white"/>
<path d="M154.85 153.008H146.348V154.278H154.85V153.008Z" fill="white"/>
<path d="M154.85 155.104H146.348V156.366H154.85V155.104Z" fill="white"/>
<path d="M164.737 150.923H156.234V152.184H164.737V150.923Z" fill="white"/>
<path d="M164.737 153.008H156.234V154.278H164.737V153.008Z" fill="white"/>
<path d="M164.737 155.104H156.234V156.366H164.737V155.104Z" fill="white"/>
</svg>
