<svg width="75" height="75" viewBox="0 0 75 75" fill="none" xmlns="http://www.w3.org/2000/svg">
<path d="M34.3251 10.0352H17.9143V21.655H34.3251V10.0352Z" fill="#8C9AFF"/>
<path d="M71.9998 21.3899H4V71.567C4 73.5471 5.57539 74.9999 7.41424 74.9999H68.5869C70.4244 74.9999 71.9998 73.4166 71.9998 71.567V21.3899Z" fill="#FFBAFE"/>
<path d="M11.3515 3.30103C12.2703 3.30103 13.058 4.09335 13.058 5.0175C13.058 5.94165 12.2703 6.73397 11.3515 6.73397C10.4327 6.73397 9.64502 5.94165 9.64502 5.0175C9.64502 3.96151 10.4327 3.30103 11.3515 3.30103Z" fill="#FCFD03"/>
<path d="M58.0854 0C59.923 0 61.3674 1.45279 61.3674 3.3011C61.3674 5.1494 59.923 6.60219 58.0854 6.60219C56.2466 6.60219 54.8022 5.1494 54.8022 3.3011C54.8022 1.45279 56.2466 0 58.0854 0Z" fill="#FCFD03"/>
<path d="M68.0628 50.3088H40.1011V70.9065H68.0628V50.3088Z" fill="#479EFF"/>
<path d="M36.0313 50.3088H8.06958V70.9065H36.0313V50.3088Z" fill="#FCFD03"/>
<path d="M36.0313 25.4846H8.06958V46.0823H36.0313V25.4846Z" fill="#479EFF"/>
<path d="M68.0628 25.4846H40.1011V46.0823H68.0628V25.4846Z" fill="#00F47F"/>
<path d="M18.703 10.0352V21.655H4V13.6C4 11.7517 5.57539 10.1683 7.41424 10.1683H18.703V10.0352Z" fill="#8C9AFF"/>
<path d="M72.0001 13.4682V21.5232H33.5374V9.9021H68.7195C70.557 10.0352 72.0001 11.6199 72.0001 13.4682Z" fill="black"/>
<path d="M70.8191 1.71655C71.4718 1.71655 72 2.24912 72 2.90438C72 3.56095 71.4718 4.09349 70.8191 4.09349C70.1664 4.09349 69.6382 3.56095 69.6382 2.90438C69.6382 2.24912 70.1664 1.71655 70.8191 1.71655Z" fill="#00F47F"/>
<path d="M50.3394 4.09351C50.9921 4.09351 51.5216 4.62477 51.5216 5.28133C51.5216 5.9379 50.9921 6.47048 50.3394 6.47048C49.6879 6.47048 49.1584 5.9379 49.1584 5.28133C49.1584 4.62477 49.6879 4.09351 50.3394 4.09351Z" fill="#00F47F"/>
<path d="M35.5059 3.30103C36.1586 3.30103 36.6868 3.83359 36.6868 4.48885C36.6868 5.14542 36.1586 5.678 35.5059 5.678C34.8531 5.678 34.325 5.14542 34.325 4.48885C34.325 3.83359 34.8531 3.30103 35.5059 3.30103Z" fill="#00F47F"/>
<path d="M19.0978 0.792236C19.7493 0.792236 20.2787 1.3235 20.2787 1.98007C20.2787 2.63663 19.7493 3.16921 19.0978 3.16921C18.4451 3.16921 17.9143 2.63663 17.9143 1.98007C17.9143 1.3235 18.4451 0.792236 19.0978 0.792236Z" fill="#00F47F"/>
<path d="M32.6185 31.2934H11.3517C10.9572 31.2934 10.564 30.8979 10.564 30.5024C10.564 30.1056 10.9572 29.7087 11.3517 29.7087H32.7496C33.1441 29.7087 33.5373 30.1056 33.5373 30.5024C33.5373 30.8979 33.1441 31.2934 32.6185 31.2934Z" fill="#00F47F"/>
<path d="M32.6185 34.5945H11.3517C10.9572 34.5945 10.564 34.199 10.564 33.8035C10.564 33.4067 10.9572 33.0112 11.3517 33.0112H32.7496C33.1441 33.0112 33.5373 33.4067 33.5373 33.8035C33.5373 34.199 33.1441 34.5945 32.6185 34.5945Z" fill="#00F47F"/>
<path d="M32.6185 37.8969H11.3517C10.9572 37.8969 10.564 37.5001 10.564 37.1033C10.564 36.7077 10.9572 36.3123 11.3517 36.3123H32.7496C33.1441 36.3123 33.5373 36.7077 33.5373 37.1033C33.5373 37.5001 33.1441 37.8969 32.6185 37.8969Z" fill="#00F47F"/>
<path d="M26.0547 41.1967H11.3517C10.9572 41.1967 10.564 40.8012 10.564 40.4057C10.564 40.0089 10.9572 39.6121 11.3517 39.6121H26.1858C26.579 39.6121 26.9735 40.0089 26.9735 40.4057C26.9735 40.8012 26.579 41.1967 26.0547 41.1967Z" fill="#00F47F"/>
<path d="M64.6484 31.2934H43.3816C42.9897 31.2934 42.5952 30.8979 42.5952 30.5024C42.5952 30.1056 42.9897 29.7087 43.3816 29.7087H64.7808C65.174 29.7087 65.5672 30.1056 65.5672 30.5024C65.4374 30.8979 65.174 31.2934 64.6484 31.2934Z" fill="#479EFF"/>
<path d="M64.6484 34.5945H43.3816C42.9897 34.5945 42.5952 34.199 42.5952 33.8035C42.5952 33.4067 42.9897 33.0112 43.3816 33.0112H64.7808C65.174 33.0112 65.5672 33.4067 65.5672 33.8035C65.4374 34.199 65.174 34.5945 64.6484 34.5945Z" fill="#479EFF"/>
<path d="M64.6484 37.8969H43.3816C42.9897 37.8969 42.5952 37.5001 42.5952 37.1033C42.5952 36.7077 42.9897 36.3123 43.3816 36.3123H64.7808C65.174 36.3123 65.5672 36.7077 65.5672 37.1033C65.4374 37.5001 65.174 37.8969 64.6484 37.8969Z" fill="#479EFF"/>
<path d="M58.0859 41.1967H43.3816C42.9897 41.1967 42.5952 40.8012 42.5952 40.4057C42.5952 40.0089 42.9897 39.6121 43.3816 39.6121H58.217C58.6102 39.6121 59.0047 40.0089 59.0047 40.4057C59.0047 40.8012 58.6102 41.1967 58.0859 41.1967Z" fill="#479EFF"/>
<path d="M32.6185 56.1188H11.3517C10.9572 56.1188 10.564 55.722 10.564 55.3252C10.564 54.9297 10.9572 54.5342 11.3517 54.5342H32.7496C33.1441 54.5342 33.5373 54.9297 33.5373 55.3252C33.5373 55.722 33.1441 56.1188 32.6185 56.1188Z" fill="#479EFF"/>
<path d="M32.6185 59.4186H11.3517C10.9572 59.4186 10.564 59.0231 10.564 58.6276C10.564 58.2308 10.9572 57.834 11.3517 57.834H32.7496C33.1441 57.834 33.5373 58.2308 33.5373 58.6276C33.5373 59.0231 33.1441 59.4186 32.6185 59.4186Z" fill="#479EFF"/>
<path d="M32.6185 62.7196H11.3517C10.9572 62.7196 10.564 62.3241 10.564 61.9286C10.564 61.5318 10.9572 61.135 11.3517 61.135H32.7496C33.1441 61.135 33.5373 61.5318 33.5373 61.9286C33.5373 62.3241 33.1441 62.7196 32.6185 62.7196Z" fill="#479EFF"/>
<path d="M26.0547 66.0221H11.3517C10.9572 66.0221 10.564 65.6253 10.564 65.2285C10.564 64.8317 10.9572 64.4375 11.3517 64.4375H26.1858C26.579 64.4375 26.9735 64.8317 26.9735 65.2285C26.9735 65.6253 26.579 66.0221 26.0547 66.0221Z" fill="#479EFF"/>
<path d="M64.6484 56.1188H43.3816C42.9897 56.1188 42.5952 55.722 42.5952 55.3252C42.5952 54.9297 42.9897 54.5342 43.3816 54.5342H64.7808C65.174 54.5342 65.5672 54.9297 65.5672 55.3252C65.5672 55.722 65.174 56.1188 64.6484 56.1188Z" fill="#FCFD03"/>
<path d="M64.6484 59.4186H43.3816C42.9897 59.4186 42.5952 59.0231 42.5952 58.6276C42.5952 58.2308 42.9897 57.834 43.3816 57.834H64.7808C65.174 57.834 65.5672 58.2308 65.5672 58.6276C65.4374 59.0231 65.174 59.4186 64.6484 59.4186Z" fill="#FCFD03"/>
<path d="M64.6484 62.7196H43.3816C42.9897 62.7196 42.5952 62.3241 42.5952 61.9286C42.5952 61.5318 42.9897 61.135 43.3816 61.135H64.7808C65.174 61.135 65.5672 61.5318 65.5672 61.9286C65.4374 62.3241 65.174 62.7196 64.6484 62.7196Z" fill="#FCFD03"/>
<path d="M58.0859 66.0221H43.3816C42.9897 66.0221 42.5952 65.6253 42.5952 65.2285C42.5952 64.8317 42.9897 64.4375 43.3816 64.4375H58.217C58.6102 64.4375 59.0047 64.8317 59.0047 65.2285C58.8736 65.6253 58.6102 66.0221 58.0859 66.0221Z" fill="#FCFD03"/>
</svg>
