<svg width="75" height="75" viewBox="0 0 75 75" fill="none" xmlns="http://www.w3.org/2000/svg">
<path d="M13.5206 11.5586H6.9751V17.3379H13.5206V11.5586Z" fill="#FF4A51"/>
<path d="M58.4211 39.9294V47.2851C57.1128 47.2851 55.9339 48.3368 55.9339 49.7807V50.5701H43.6296V39.9294H58.4211Z" fill="#8C9AFF"/>
<path d="M73.214 39.9294V50.5701H60.9098V49.7807C60.9098 49.1237 60.6471 48.4667 60.1243 48.0745C59.7309 47.6798 59.0761 47.4175 58.4213 47.4175V40.0619H73.214V39.9294Z" fill="black"/>
<path d="M58.4211 57.7933C59.7307 57.7933 60.9096 56.7415 60.9096 55.2976V50.3052H73.2139V60.1577C73.2139 68.3015 66.6684 75.0001 58.4211 75.0001C50.1739 75.0001 43.6296 68.4326 43.6296 60.1577V50.3052H55.9339V55.2976C56.0658 56.7415 57.1128 57.7933 58.4211 57.7933Z" fill="#FFBAFE"/>
<path d="M58.4214 62.9154C58.0293 62.9154 57.6359 62.522 57.6359 62.1273V58.0554C57.6359 57.6607 58.0293 57.2686 58.4214 57.2686C58.8148 57.2686 59.2082 57.6607 59.2082 58.0554V62.1273C59.3389 62.522 58.9455 62.9154 58.4214 62.9154Z" fill="#FCFD03"/>
<path d="M20.0659 71.0594C17.1866 71.0594 14.5673 70.0076 12.6042 67.9067C10.6398 65.937 9.46216 63.1778 9.46216 60.42V30.8677C9.46216 30.473 9.85555 30.0782 10.2477 30.0782C10.6398 30.0782 11.0332 30.473 11.0332 30.8677V60.42C11.0332 62.7844 11.9494 65.1489 13.6511 66.8563C15.3529 68.5638 17.5787 69.4831 20.0659 69.4831C25.0404 69.4831 29.0987 65.4112 29.0987 60.42V15.2371C29.0987 11.1652 30.6697 7.35563 33.5491 4.46662C36.4297 1.5763 40.2253 0 44.2848 0C52.6628 0 59.4697 6.82974 59.4697 15.2371V47.2851C59.4697 47.6798 59.0763 48.0745 58.6842 48.0745C58.2908 48.0745 57.636 47.8109 57.636 47.2851V15.2371C57.636 7.74903 51.6146 1.70744 44.1529 1.70744C40.488 1.70744 37.2152 3.15257 34.5973 5.64816C32.11 8.14375 30.6697 11.5586 30.6697 15.2371V60.42C30.6697 66.3304 25.8259 71.0594 20.0659 71.0594Z" fill="black"/>
<path d="M12.6045 28.3721H7.76074V30.8677H12.6045V28.3721Z" fill="#FF4A51"/>
<path d="M38.0001 29.2913C39.3084 29.2913 40.4873 30.3404 40.4873 31.7868C40.4873 33.2307 39.3084 34.15 38.0001 34.15C36.6904 34.15 35.5128 33.0996 35.5128 31.6544C35.5128 30.2106 36.6904 29.2913 38.0001 29.2913Z" fill="#00F47F"/>
<path d="M68.6334 14.4475C71.5969 14.4475 74 16.86 74 19.8334C74 22.8081 71.5969 25.2181 68.6334 25.2181C65.6686 25.2181 63.2655 22.8081 63.2655 19.8334C63.2655 16.86 65.6686 14.4475 68.6334 14.4475Z" fill="#00F47F"/>
<path d="M5.27277 66.1992C7.1052 66.1992 8.54553 67.6444 8.54553 69.4829C8.54553 71.3215 7.1052 72.7667 5.27277 72.7667C3.44033 72.7667 2 71.3215 2 69.4829C2 67.6444 3.44033 66.1992 5.27277 66.1992Z" fill="#00F47F"/>
<path d="M68.6329 31.7869C69.2838 31.7869 69.8118 32.3154 69.8118 32.9685C69.8118 33.6216 69.2838 34.15 68.6329 34.15C67.982 34.15 67.454 33.6216 67.454 32.9685C67.454 32.3154 67.982 31.7869 68.6329 31.7869Z" fill="#FCFD03"/>
<path d="M60.5167 2.62671C61.1676 2.62671 61.6956 3.1564 61.6956 3.80952C61.6956 4.46263 61.1676 4.99114 60.5167 4.99114C59.8671 4.99114 59.3391 4.46263 59.3391 3.80952C59.3391 3.1564 59.8671 2.62671 60.5167 2.62671Z" fill="#FCFD03"/>
<path d="M48.9967 12.0845C49.6476 12.0845 50.1743 12.6129 50.1743 13.266C50.1743 13.9191 49.6476 14.4476 48.9967 14.4476C48.3457 14.4476 47.8177 13.9191 47.8177 13.266C47.8177 12.6129 48.3457 12.0845 48.9967 12.0845Z" fill="#FCFD03"/>
<path d="M36.8217 66.9875C37.4726 66.9875 38.0006 67.516 38.0006 68.1691C38.0006 68.8222 37.4726 69.352 36.8217 69.352C36.1707 69.352 35.644 68.8222 35.644 68.1691C35.644 67.516 36.1707 66.9875 36.8217 66.9875Z" fill="#FCFD03"/>
<path d="M21.2433 40.7188C21.8942 40.7188 22.4222 41.2472 22.4222 41.9003C22.4222 42.5534 21.8942 43.0819 21.2433 43.0819C20.5924 43.0819 20.0657 42.5534 20.0657 41.9003C20.0657 41.2472 20.5924 40.7188 21.2433 40.7188Z" fill="#FCFD03"/>
<path d="M20.4579 4.59644C21.1088 4.59644 21.6368 5.12751 21.6368 5.77932C21.6368 6.43244 21.1088 6.96221 20.4579 6.96221C19.807 6.96221 19.2803 6.43244 19.2803 5.77932C19.2803 5.12751 19.807 4.59644 20.4579 4.59644Z" fill="#FCFD03"/>
<path d="M4.87965 52.2761C5.53058 52.2761 6.05856 52.8058 6.05856 53.4577C6.05856 54.1121 5.53058 54.6406 4.87965 54.6406C4.23002 54.6406 3.70203 54.1121 3.70203 53.4577C3.70203 52.8058 4.23002 52.2761 4.87965 52.2761Z" fill="#FCFD03"/>
<path d="M15.0917 17.0757H5.27344V28.6343H15.0917V17.0757Z" fill="#FFBAFE"/>
<path d="M11.8189 25.0882C11.8189 24.6935 11.4256 24.2988 11.0334 24.2988H5.27344V26.0075H11.0334C11.4256 26.0075 11.8189 25.6128 11.8189 25.0882Z" fill="#FF4A51"/>
<path d="M60.91 49.6496V55.5601C60.91 56.8741 59.8618 58.0556 58.4215 58.0556C56.9824 58.0556 55.9342 57.0052 55.9342 55.5601V49.7807C55.9342 48.4667 56.9824 47.2852 58.4215 47.2852C59.0763 47.2852 59.7311 47.5474 60.1245 47.9421C60.5166 48.3369 60.91 48.9939 60.91 49.6496Z" fill="#479EFF"/>
</svg>
