<svg width="200" height="200" viewBox="0 0 200 200" fill="none" xmlns="http://www.w3.org/2000/svg">
<path d="M199.85 99.9167C199.85 155.112 155.112 199.841 99.9331 199.841C44.7464 199.841 0 155.112 0 99.9167C0 44.7382 44.7464 0 99.9331 0C155.112 0 199.85 44.7382 199.85 99.9167Z" fill="black"/>
<path d="M143.593 149.446C145.531 147.904 145.845 145.084 144.294 143.146L139.19 136.944C137.639 135.006 134.827 134.693 132.898 136.235L132.889 136.243C130.951 137.786 130.638 140.614 132.188 142.544L137.285 148.745C138.835 150.683 141.656 151.005 143.585 149.454L143.593 149.446Z" fill="#9DD9F3"/>
<path d="M144.528 97.2185C144.528 119.963 125.552 138.947 102.808 138.947C80.0637 138.947 61.0881 119.963 61.0881 97.2185C61.0881 74.4742 80.0637 55.4986 102.808 55.4986C125.552 55.4986 144.528 74.4742 144.528 97.2185ZM67.1164 54.9296C55.835 64.4958 48.9655 77.8471 47.7615 92.5591C46.574 107.222 51.1839 121.488 60.7335 132.745C70.2914 143.977 83.6345 150.822 98.2971 152.009C110.601 153.015 122.641 149.931 132.826 143.251C134.756 142.006 136.603 140.621 138.384 139.112C140.231 137.545 141.971 135.871 143.571 134.098L143.58 134.106C146.73 130.651 149.41 126.849 151.554 122.783C155.009 116.252 157.129 109.036 157.739 101.474C160.197 71.1673 137.535 44.4894 107.212 42.0401C92.5821 40.8361 78.3401 45.4295 67.1164 54.9296Z" fill="#F2818E"/>
<path d="M102.794 138.948C80.0498 138.948 61.0742 119.964 61.0742 97.2201V97.0635C61.1567 119.734 80.0993 138.635 102.794 138.635C113.399 138.635 123.18 134.512 130.61 127.791C130.058 128.401 129.497 128.995 128.911 129.564C121.72 135.41 112.608 138.948 102.794 138.948Z" fill="#7B7B7B"/>
<path d="M99.7438 141.702C76.9912 141.702 58.0156 122.726 58.0156 99.9819C58.0156 87.8345 63.4254 76.784 71.9278 69.0898C65.215 76.5118 61.0916 86.3089 61.0916 96.9059V97.2192C61.0916 119.963 80.0672 138.947 102.812 138.947C112.625 138.947 121.738 135.409 128.929 129.563C121.358 137.042 111.009 141.702 99.7438 141.702Z" fill="#440230"/>
<path d="M157.907 96.8233C157.833 68.4795 135.963 44.3579 107.198 42.0406C105.673 41.9169 104.147 41.8509 102.63 41.8509C89.6246 41.8509 77.1556 46.4196 67.1029 54.9301C66.1381 55.7466 65.2062 56.596 64.3073 57.4619C64.1836 57.5691 64.0517 57.6763 63.928 57.7835L62.1055 59.3916C63.6558 57.7093 65.3217 56.1177 67.1029 54.6086C77.1556 46.098 89.6246 41.5293 102.63 41.5293C104.147 41.5293 105.673 41.587 107.198 41.719C136.07 44.0363 157.998 68.3393 157.907 96.8233Z" fill="#7B7B7B"/>
<path d="M140.084 137.257L140.372 136.952C143.531 133.505 146.211 129.695 148.363 125.621C151.819 119.098 153.938 111.882 154.548 104.312C157.006 74.0053 134.336 47.3274 104.021 44.8781C102.495 44.7544 100.986 44.6967 99.4772 44.6967C86.6206 44.6967 74.2918 49.1498 64.2969 57.4625C65.1958 56.5966 66.1276 55.7472 67.0925 54.9308C77.1452 46.4202 89.6142 41.8516 102.619 41.8516C104.137 41.8516 105.662 41.9176 107.188 42.0413C135.952 44.3586 157.822 68.4801 157.897 96.8239C157.897 98.2588 157.839 99.7019 157.715 101.153C157.105 108.716 154.985 115.931 151.53 122.463C149.386 126.528 146.706 130.33 143.556 133.777C142.467 134.981 141.296 136.144 140.084 137.257Z" fill="#440230"/>
<path d="M147.61 140.061L133.492 151.309L163.403 188.856C166.33 192.534 171.674 193.136 175.344 190.217L176.169 189.549C179.838 186.638 180.44 181.286 177.521 177.624L147.61 140.061Z" fill="#F2818E"/>
<path d="M167.858 185.417C166.3 185.417 164.766 184.732 163.718 183.421L136.422 148.975L140.958 145.371L144.091 142.864L144.685 142.394L171.982 176.84C173.804 179.125 173.425 182.448 171.14 184.271C170.167 185.037 169.013 185.417 167.858 185.417Z" fill="#440230"/>
<path d="M134.698 97.0296C134.698 114.677 120.39 128.994 102.734 128.994C85.0775 128.994 70.7695 114.677 70.7695 97.0296C70.7695 79.3652 85.0775 65.0654 102.734 65.0654C120.39 65.0654 134.698 79.3652 134.698 97.0296Z" fill="#9DD9F3"/>
<path d="M118.275 97.0305C118.275 105.599 111.331 112.551 102.755 112.551C94.1863 112.551 87.2344 105.599 87.2344 97.0305C87.2344 88.454 94.1863 81.5103 102.755 81.5103C111.331 81.5103 118.275 88.454 118.275 97.0305Z" fill="#7B7B7B"/>
<path d="M118.229 95.8748C118.229 95.8665 118.221 95.85 118.221 95.8335C118.221 95.85 118.229 95.8583 118.229 95.8748ZM118.205 95.5861C118.13 94.7532 117.982 93.9368 117.784 93.1534C117.982 93.945 118.13 94.7532 118.205 95.5861ZM117.669 92.7245L117.66 92.7163C117.66 92.7163 117.66 92.7245 117.669 92.7245Z" fill="#75B0CF"/>
<path d="M102.728 112.55H102.67C102.662 112.541 102.662 112.541 102.654 112.541H102.291C97.1616 112.401 92.6589 109.762 89.9375 105.804C92.428 107.527 95.4628 108.533 98.7202 108.533C107.288 108.533 114.24 101.581 114.24 93.0132C114.24 89.7558 113.226 86.7375 111.519 84.2305C111.725 84.3707 111.923 84.5191 112.121 84.6758C114.727 86.6632 116.681 89.4424 117.622 92.6586C117.622 92.6668 117.63 92.6668 117.63 92.6668C117.63 92.6833 117.638 92.6999 117.638 92.7163L117.646 92.7245C117.655 92.7575 117.663 92.7905 117.671 92.8317C117.671 92.8317 117.679 92.84 117.679 92.8482C117.679 92.8565 117.688 92.8729 117.688 92.8812C117.688 92.8894 117.688 92.8977 117.696 92.906C117.696 92.9142 117.696 92.9225 117.704 92.9308C117.704 92.939 117.704 92.9472 117.712 92.9554V92.9802C117.721 93.005 117.729 93.0215 117.729 93.038C117.729 93.0462 117.737 93.0462 117.737 93.0545C117.737 93.0627 117.737 93.0792 117.745 93.0874V93.1039C117.754 93.1204 117.754 93.1286 117.754 93.1369C117.762 93.1451 117.762 93.1451 117.762 93.1534C117.96 93.9368 118.108 94.7532 118.182 95.5861V95.6356C118.191 95.7015 118.199 95.7594 118.199 95.8253C118.199 95.8418 118.207 95.8665 118.207 95.8748V95.9407C118.215 95.982 118.215 96.0232 118.215 96.0727C118.215 96.0892 118.224 96.1057 118.224 96.1222V96.1964C118.224 96.2294 118.232 96.2706 118.232 96.3118V96.419C118.232 96.4273 118.232 96.4355 118.24 96.452V96.7242C118.24 96.7407 118.248 96.7571 118.248 96.7736V97.0293C118.248 105.598 111.305 112.55 102.728 112.55Z" fill="#353131"/>
<path d="M100.351 82.4324C100.351 86.6052 96.9694 89.9946 92.7966 89.9946C88.6155 89.9946 85.2344 86.6052 85.2344 82.4324C85.2344 78.2513 88.6155 74.8784 92.7966 74.8784C96.9694 74.8784 100.351 78.2513 100.351 82.4324Z" fill="white"/>
<path d="M91.0665 97.1773C91.0665 99.4781 89.2028 101.334 86.9102 101.334C84.6176 101.334 82.7539 99.4781 82.7539 97.1773C82.7539 94.8847 84.6176 93.0127 86.9102 93.0127C89.2028 93.0127 91.0665 94.8847 91.0665 97.1773Z" fill="white"/>
</svg>
