<svg width="78" height="75" viewBox="0 0 78 75" fill="none" xmlns="http://www.w3.org/2000/svg">
<path d="M71.4046 61.8748C35.2029 25.4584 76.8781 67.3791 52.1809 42.5378C58.4964 31.6701 57.0926 17.5556 47.8324 8.24086C37.0269 -2.62824 19.3471 -2.76917 8.40151 7.95762C-2.68275 18.8253 -2.82285 37.0335 8.12131 48.0421C17.3829 57.3583 31.5549 58.9098 42.2188 52.4177C55.2686 65.6852 57.5143 67.9442 61.4425 71.8956C64.2486 74.7182 68.5985 74.7182 71.4046 71.8956C74.0706 69.073 74.0706 64.696 71.4046 61.8748Z" fill="#479EFF"/>
<path d="M36.045 15.0149H27.2051V23.907H36.045V15.0149Z" fill="#FF8E00"/>
<path d="M36.045 23.7644H27.2051V32.6578H36.045V23.7644Z" fill="#8C9AFF"/>
<path d="M27.2049 23.7644H18.365V32.6578H27.2049V23.7644Z" fill="#FF8E00"/>
<path d="M27.2049 32.658H18.365V41.55H27.2049V32.658Z" fill="#8C9AFF"/>
<path d="M36.045 32.658H27.2051V41.55H36.045V32.658Z" fill="#FF8E00"/>
<path d="M44.745 32.658V41.1272C44.6049 41.2667 44.4648 41.409 44.4648 41.55H36.0452V32.658H44.745Z" fill="#8C9AFF"/>
<path d="M35.9048 41.4089H44.3231C42.0787 44.2302 39.2713 46.3482 35.9048 47.7602V41.4089Z" fill="#FF8E00"/>
<path d="M35.9049 41.4089V47.7602C33.379 48.748 30.713 49.3132 27.9055 49.3132H27.0649V41.4089H35.9049Z" fill="#8C9AFF"/>
<path d="M27.2049 41.4089V49.3132C24.1173 49.1708 21.0296 48.3239 18.365 47.0542V41.4089H27.2049Z" fill="#FF8E00"/>
<path d="M18.3648 41.4089V47.0542C15.6988 45.6422 13.313 43.8088 11.489 41.4089H18.3648Z" fill="#8C9AFF"/>
<path d="M35.905 23.7644V14.8724H27.0651V23.7644H18.2238V41.5499H11.3494C8.40178 37.8803 6.71924 33.3625 6.71924 28.2823C6.71924 16.5663 16.1196 7.1106 27.7656 7.1106C39.4116 7.1106 48.8147 16.5663 48.8147 28.2823C48.8147 33.0806 47.2709 37.5985 44.4648 41.1271V32.6579H35.6235V23.7644H35.905Z" fill="black"/>
<path d="M60.179 50.5829L50.2169 60.6037L46.5688 56.9341L56.3909 46.9133L60.179 50.5829Z" fill="#FFBAFE"/>
<path d="M63.5467 36.1865C64.2444 36.1865 64.8103 36.7544 64.8103 37.4563C64.8103 38.1581 64.2444 38.7273 63.5467 38.7273C62.849 38.7273 62.2844 38.1581 62.2844 37.4563C62.2844 36.7544 62.849 36.1865 63.5467 36.1865Z" fill="#00F47F"/>
<path d="M60.0384 4.42896C60.7361 4.42896 61.302 4.99679 61.302 5.69861C61.302 6.40042 60.7361 6.96834 60.0384 6.96834C59.3407 6.96834 58.7761 6.40042 58.7761 5.69861C58.7761 4.99679 59.3407 4.42896 60.0384 4.42896Z" fill="#00F47F"/>
<path d="M40.6748 61.7324C41.3725 61.7324 41.937 62.3031 41.937 63.0035C41.937 63.7039 41.3725 64.2745 40.6748 64.2745C39.9771 64.2745 39.4111 63.7039 39.4111 63.0035C39.4111 62.3031 39.9771 61.7324 40.6748 61.7324Z" fill="#00F47F"/>
<path d="M20.6092 67.0959C21.3069 67.0959 21.8728 67.6652 21.8728 68.367C21.8728 69.0689 21.3069 69.6367 20.6092 69.6367C19.9115 69.6367 19.3469 69.0689 19.3469 68.367C19.3469 67.6652 19.9115 67.0959 20.6092 67.0959Z" fill="#00F47F"/>
<path d="M3.91119 1.74731C4.60889 1.74731 5.17482 2.31515 5.17482 3.01697C5.17482 3.71878 4.60889 4.28807 3.91119 4.28807C3.21486 4.28807 2.64893 3.71878 2.64893 3.01697C2.64893 2.31515 3.21486 1.74731 3.91119 1.74731Z" fill="#00F47F"/>
<path d="M2.08769 52.1345C2.7854 52.1345 3.35133 52.7052 3.35133 53.407C3.35133 54.1074 2.7854 54.6767 2.08769 54.6767C1.38998 54.6767 0.825439 54.1074 0.825439 53.407C0.825439 52.7052 1.38998 52.1345 2.08769 52.1345Z" fill="#00F47F"/>
<path d="M77.1581 75H42.0785C41.6569 75 41.2366 74.5773 41.2366 74.1545C41.2366 73.7304 41.6569 73.3062 42.0785 73.3062H77.1581C77.5784 73.3062 78.0001 73.7304 78.0001 74.1545C78.0001 74.5773 77.5784 75 77.1581 75Z" fill="#FFBAFE"/>
<path d="M43.7625 40.5622H36.7452V33.5049H43.7625V40.5622ZM28.0468 40.5622V33.5049H35.0627V40.5622H28.0468ZM19.2055 40.5622V33.5049H26.2228V40.5622H19.2055ZM19.2055 24.6129H26.2228V31.6702H19.2055V24.6129ZM28.0468 15.8604H35.0627V22.9191H28.0468V15.8604ZM35.0627 31.6702H28.0468V24.6129H35.0627V31.6702ZM44.7446 24.6129C45.1649 24.6129 45.5866 24.1887 45.5866 23.7646V21.0843C45.5866 20.6602 45.1649 20.2374 44.7446 20.2374C44.3229 20.2374 43.9026 20.6602 43.9026 21.0843V22.9191H36.8867V15.8604H39.5513C39.973 15.8604 40.3933 15.439 40.3933 15.0149C40.3933 14.5907 39.973 14.168 39.5513 14.168H27.2048C26.7831 14.168 26.3629 14.5907 26.3629 15.0149V22.9191H18.505C18.0833 22.9191 17.663 23.3432 17.663 23.7646V40.5622H11.6292C11.4891 40.5622 11.2075 40.7031 11.0674 40.7031C11.2075 40.9849 11.349 41.1272 11.6292 41.4091C11.9093 41.6909 12.0508 41.9728 12.331 42.2546H17.5229V46.4907C17.8031 46.6302 18.0833 46.7725 18.3649 46.9134C18.6451 47.0543 18.9253 47.1953 19.2055 47.3362C19.2055 47.1953 19.3469 47.0543 19.3469 46.9134V42.1151H26.3629V49.171H28.1869V42.1151H35.2028V47.9013C35.483 47.7603 35.7632 47.7604 36.0448 47.6195C36.325 47.4785 36.6051 47.3362 36.8867 47.1953V42.1151H43.7625C44.0427 41.8319 44.3229 41.55 44.4644 41.2668C44.6045 41.1272 44.7446 40.985 44.7446 40.844C45.0248 40.4213 45.3064 39.9971 45.5866 39.5743V32.3748C45.5866 31.952 45.1649 31.5292 44.7446 31.5292H36.8867V24.4706L44.7446 24.6129Z" fill="#F6FF6E"/>
</svg>
