<svg width="78" height="75" viewBox="0 0 78 75" fill="none" xmlns="http://www.w3.org/2000/svg">
<path d="M71.4046 61.8748C35.2029 25.4584 76.8781 67.3791 52.1809 42.5378C58.4964 31.6701 57.0926 17.5556 47.8324 8.24086C37.0269 -2.62824 19.3471 -2.76917 8.40151 7.95762C-2.68275 18.8253 -2.82285 37.0335 8.12131 48.0421C17.3829 57.3583 31.5549 58.9098 42.2188 52.4177C55.2686 65.6852 57.5143 67.9442 61.4425 71.8956C64.2486 74.7182 68.5985 74.7182 71.4046 71.8956C74.0706 69.073 74.0706 64.696 71.4046 61.8748Z" fill="#7C0E12"/>
<path d="M36.045 15.0149H27.2051V23.907H36.045V15.0149Z" fill="#440230"/>
<path d="M36.045 23.7644H27.2051V32.6578H36.045V23.7644Z" fill="#A853A4"/>
<path d="M27.2051 23.7644H18.3651V32.6578H27.2051V23.7644Z" fill="#440230"/>
<path d="M27.2051 32.658H18.3651V41.55H27.2051V32.658Z" fill="#A853A4"/>
<path d="M36.045 32.658H27.2051V41.55H36.045V32.658Z" fill="#440230"/>
<path d="M44.7449 32.658V41.1272C44.6048 41.2667 44.4648 41.409 44.4648 41.55H36.0451V32.658H44.7449Z" fill="#A853A4"/>
<path d="M35.9048 41.4089H44.3231C42.0788 44.2302 39.2713 46.3482 35.9048 47.7602V41.4089Z" fill="#440230"/>
<path d="M35.9048 41.4089V47.7602C33.3789 48.748 30.7129 49.3132 27.9054 49.3132H27.0648V41.4089H35.9048Z" fill="#A853A4"/>
<path d="M27.2051 41.4089V49.3132C24.1174 49.1708 21.0297 48.3239 18.3651 47.0542V41.4089H27.2051Z" fill="#440230"/>
<path d="M18.3648 41.4089V47.0542C15.6988 45.6422 13.313 43.8088 11.489 41.4089H18.3648Z" fill="#A853A4"/>
<path d="M35.9052 23.7644V14.8724H27.0652V23.7644H18.2239V41.5499H11.3495C8.4019 37.8803 6.71936 33.3625 6.71936 28.2823C6.71936 16.5663 16.1197 7.1106 27.7657 7.1106C39.4117 7.1106 48.8148 16.5663 48.8148 28.2823C48.8148 33.0806 47.271 37.5985 44.4649 41.1271V32.6579H35.6236V23.7644H35.9052Z" fill="#F6FF6E"/>
<path d="M60.1789 50.5829L50.2168 60.6037L46.5688 56.9341L56.3908 46.9133L60.1789 50.5829Z" fill="#FF4A51"/>
<path d="M63.5468 36.1865C64.2445 36.1865 64.8104 36.7544 64.8104 37.4563C64.8104 38.1581 64.2445 38.7273 63.5468 38.7273C62.8491 38.7273 62.2845 38.1581 62.2845 37.4563C62.2845 36.7544 62.8491 36.1865 63.5468 36.1865Z" fill="#FFBAFE"/>
<path d="M60.0384 4.42896C60.7361 4.42896 61.3021 4.99679 61.3021 5.69861C61.3021 6.40042 60.7361 6.96834 60.0384 6.96834C59.3407 6.96834 58.7762 6.40042 58.7762 5.69861C58.7762 4.99679 59.3407 4.42896 60.0384 4.42896Z" fill="#FFBAFE"/>
<path d="M40.6748 61.7324C41.3725 61.7324 41.9371 62.3031 41.9371 63.0035C41.9371 63.7039 41.3725 64.2745 40.6748 64.2745C39.9771 64.2745 39.4112 63.7039 39.4112 63.0035C39.4112 62.3031 39.9771 61.7324 40.6748 61.7324Z" fill="#FFBAFE"/>
<path d="M20.6092 67.0959C21.3069 67.0959 21.8728 67.6652 21.8728 68.367C21.8728 69.0689 21.3069 69.6367 20.6092 69.6367C19.9115 69.6367 19.3469 69.0689 19.3469 68.367C19.3469 67.6652 19.9115 67.0959 20.6092 67.0959Z" fill="#FFBAFE"/>
<path d="M3.91131 1.74731C4.60901 1.74731 5.17494 2.31515 5.17494 3.01697C5.17494 3.71878 4.60901 4.28807 3.91131 4.28807C3.21499 4.28807 2.64905 3.71878 2.64905 3.01697C2.64905 2.31515 3.21499 1.74731 3.91131 1.74731Z" fill="#FFBAFE"/>
<path d="M2.08763 52.1345C2.78533 52.1345 3.35127 52.7052 3.35127 53.407C3.35127 54.1074 2.78533 54.6767 2.08763 54.6767C1.38992 54.6767 0.825378 54.1074 0.825378 53.407C0.825378 52.7052 1.38992 52.1345 2.08763 52.1345Z" fill="#FFBAFE"/>
<path d="M77.1581 75H42.0785C41.6568 75 41.2365 74.5773 41.2365 74.1545C41.2365 73.7304 41.6568 73.3062 42.0785 73.3062H77.1581C77.5783 73.3062 78 73.7304 78 74.1545C78 74.5773 77.5783 75 77.1581 75Z" fill="#FF4A51"/>
<path d="M43.7624 40.5622H36.7451V33.5049H43.7624V40.5622ZM28.0467 40.5622V33.5049H35.0626V40.5622H28.0467ZM19.2053 40.5622V33.5049H26.2226V40.5622H19.2053ZM19.2053 24.6129H26.2226V31.6702H19.2053V24.6129ZM28.0467 15.8604H35.0626V22.9191H28.0467V15.8604ZM35.0626 31.6702H28.0467V24.6129H35.0626V31.6702ZM44.7445 24.6129C45.1648 24.6129 45.5864 24.1887 45.5864 23.7646V21.0843C45.5864 20.6602 45.1648 20.2374 44.7445 20.2374C44.3228 20.2374 43.9025 20.6602 43.9025 21.0843V22.9191H36.8866V15.8604H39.5512C39.9729 15.8604 40.3932 15.439 40.3932 15.0149C40.3932 14.5907 39.9729 14.168 39.5512 14.168H27.2047C26.783 14.168 26.3627 14.5907 26.3627 15.0149V22.9191H18.5049C18.0832 22.9191 17.6629 23.3432 17.6629 23.7646V40.5622H11.629C11.4889 40.5622 11.2074 40.7031 11.0673 40.7031C11.2074 40.9849 11.3488 41.1272 11.629 41.4091C11.9092 41.6909 12.0507 41.9728 12.3309 42.2546H17.5228V46.4907C17.803 46.6302 18.0832 46.7725 18.3648 46.9134C18.6449 47.0543 18.9251 47.1953 19.2053 47.3362C19.2053 47.1953 19.3468 47.0543 19.3468 46.9134V42.1151H26.3627V49.171H28.1868V42.1151H35.2027V47.9013C35.4829 47.7603 35.7631 47.7604 36.0446 47.6195C36.3248 47.4785 36.605 47.3362 36.8866 47.1953V42.1151H43.7624C44.0426 41.8319 44.3228 41.55 44.4643 41.2668C44.6044 41.1272 44.7445 40.985 44.7445 40.844C45.0247 40.4213 45.3063 39.9971 45.5864 39.5743V32.3748C45.5864 31.952 45.1648 31.5292 44.7445 31.5292H36.8866V24.4706L44.7445 24.6129Z" fill="#FF4A51"/>
</svg>
